P3
50 50
255
0 0 0 0 0 0 0 0 0 0 0 0 0 0 0 0 0 0 0 0 0 0 0 0 0 0 0 0 0 0 0 0 0 0 0
0 0 0 0 0 0 0 0 0 0 0 0 0 0 0 0 0 0 0 0 0 0 0 0 0 0 0 0 0 0 0 0 0 0 0
0 0 0 0 0 0 0 0 0 0 0 0 0 0 0 0 0 0 0 0 0 0 0 0 0 0 0 0 0 0 0 0 0 0 0
0 0 0 0 0 0 0 0 0 0 0 0 0 0 0 0 0 0 0 0 0 0 0 0 0 0 0 0 0 0 0 0 0 0 0
0 0 0 0 0 0 0 0 0 0
0 0 0 0 0 0 0 0 0 0 0 0 0 0 0 0 0 0 0 0 0 0 0 0 0 0 0 0 0 0 0 0 0 0 0
0 0 0 0 0 0 0 0 0 0 0 0 0 0 0 0 0 0 0 0 0 0 0 0 0 0 0 0 0 0 0 0 0 0 0
0 0 0 0 0 0 0 0 0 0 0 0 0 0 0 0 0 0 0 0 0 0 0 0 0 0 0 0 0 0 0 0 0 0 0
0 0 0 0 0 0 0 0 0 0 0 0 0 0 0 0 0 0 0 0 0 0 0 0 0 0 0 0 0 0 0 0 0 0 0
0 0 0 0 0 0 0 0 0 0
0 0 0 0 0 0 0 0 0 0 0 0 0 0 0 0 0 0 0 0 0 0 0 0 0 0 0 0 0 0 0 0 0 0 0
0 0 0 0 0 0 0 0 0 0 0 0 0 0 0 0 0 0 0 0 0 0 0 0 0 0 0 0 0 0 0 0 0 0 0
0 0 0 0 0 0 0 0 0 0 0 0 0 0 0 0 0 0 0 0 0 0 0 0 0 0 0 0 0 0 0 0 0 0 0
0 0 0 0 0 0 0 0 0 0 0 0 0 0 0 0 0 0 0 0 0 0 0 0 0 0 0 0 0 0 0 0 0 0 0
0 0 0 0 0 0 0 0 0 0
0 0 0 0 0 0 0 0 0 0 0 0 0 0 0 0 0 0 0 0 0 0 0 0 0 0 0 0 0 0 0 0 0 0 0
0 0 0 0 0 0 0 0 0 0 0 0 0 0 0 0 0 0 0 0 0 0 0 0 0 122 158 67 120 156
66 118 153 65 116 150 64 114 147 63 111 144 61 109 141 60 106 138 59
103 133 57 0 0 0 0 0 0 0 0 0 0 0 0 0 0 0 0 0 0 0 0 0 0 0 0 0 0 0 0 0 0
0 0 0 0 0 0 0 0 0 0 0 0 0 0 0 0 0 0 0 0 0 0 0 0 0 0 0 0 0 0 0 0 0
0 0 0 0 0 0 0 0 0 0 0 0 0 0 0 0 0 0 0 0 0 0 0 0 0 0 0 0 0 0 0 0 0 0 0
0 0 0 0 0 0 0 0 0 0 0 0 0 0 0 0 127 165 70 125 162 69 123 159 68 121
157 67 119 154 66 117 151 65 115 149 63 113 146 62 111 143 61 109 141
60 106 138 59 104 135 57 101 131 56 99 128 54 95 123 52 0 0 0 0 0 0 0
0 0 0 0 0 0 0 0 0 0 0 0 0 0 0 0 0 0 0 0 0 0 0 0 0 0 0 0 0 0 0 0 0 0 0
0 0 0 0 0 0 0 0 0 0 0 0
0 0 0 0 0 0 0 0 0 0 0 0 0 0 0 0 0 0 0 0 0 0 0 0 0 0 0 0 0 0 0 0 0 0 0
0 0 0 0 0 0 0 0 0 0 130 168 71 127 165 70 125 162 69 123 160 68 121
157 67 119 155 66 118 152 65 116 150 64 114 147 63 112 145 62 110 142
61 108 140 59 106 137 58 104 134 57 101 131 56 99 128 54 96 124 53 93
120 51 89 115 49 0 0 0 0 0 0 0 0 0 0 0 0 0 0 0 0 0 0 0 0 0 0 0 0 0 0 0
0 0 0 0 0 0 0 0 0 0 0 0 0 0 0 0 0 0 0 0 0
0 0 0 0 0 0 0 0 0 0 0 0 0 0 0 0 0 0 0 0 0 0 0 0 0 0 0 0 0 0 0 0 0 0 0
0 0 0 0 132 171 73 130 168 71 127 165 70 125 162 69 123 160 68 122 157
67 120 155 66 118 153 65 116 150 64 114 148 63 112 145 62 111 143 61
109 141 60 107 138 59 105 136 58 103 133 57 101 130 55 98 127 54 96
124 53 93 121 51 90 117 50 87 112 48 82 106 45 0 0 0 0 0 0 0 0 0 0 0 0
0 0 0 0 0 0 0 0 0 0 0 0 0 0 0 0 0 0 0 0 0 0 0 0 0 0 0 0 0 0
0 0 0 0 0 0 0 0 0 0 0 0 0 0 0 0 0 0 0 0 0 0 0 0 0 0 0 0 0 0 0 0 0 135
174 74 132 171 73 130 168 71 127 165 70 125 162 69 124 160 68 122 158
67 120 155 66 118 153 65 116 151 64 115 148 63 113 146 62 111 144 61
109 141 60 107 139 59 106 137 58 104 134 57 102 132 56 100 129 55 98
126 54 95 123 53 93 120 51 90 117 50 87 113 48 84 108 46 79 103 44 72
93 40 0 0 0 0 0 0 0 0 0 0 0 0 0 0 0 0 0 0 0 0 0 0 0 0 0 0 0 0 0 0 0 0
0 0 0 0
0 0 0 0 0 0 0 0 0 0 0 0 0 0 0 0 0 0 0 0 0 0 0 0 0 0 0 0 0 0 134 174 74
132 170 73 130 168 71 127 165 70 126 162 69 124 160 68 122 158 67 120
155 66 118 153 65 117 151 64 115 149 63 113 147 62 112 144 62 110 142
61 108 140 60 106 138 59 104 135 58 103 133 57 101 130 56 99 128 54 97
125 53 94 122 52 92 119 51 90 116 49 87 113 48 84 109 46 80 104 44 76
99 42 70 90 38 0 0 0 0 0 0 0 0 0 0 0 0 0 0 0 0 0 0 0 0 0 0 0 0 0 0 0 0
0 0 0 0 0
0 0 0 0 0 0 0 0 0 0 0 0 0 0 0 0 0 0 0 0 0 0 0 0 0 0 0 134 174 74 132
170 73 130 168 71 127 165 70 126 162 69 124 160 68 122 158 67 120 156
66 119 153 65 117 151 64 115 149 64 114 147 63 112 145 62 110 143 61
108 140 60 107 138 59 105 136 58 103 134 57 101 131 56 100 129 55 98
126 54 96 124 53 94 121 52 91 118 50 89 115 49 86 112 48 84 108 46 81
104 44 77 100 42 72 94 40 66 85 36 0 0 0 0 0 0 0 0 0 0 0 0 0 0 0 0 0 0
0 0 0 0 0 0 0 0 0 0 0 0
0 0 0 0 0 0 0 0 0 0 0 0 0 0 0 0 0 0 0 0 0 0 0 0 134 174 74 132 170 73
129 168 71 127 165 70 126 163 69 124 160 68 122 158 67 120 156 66 119
154 65 117 151 65 115 149 64 114 147 63 112 145 62 110 143 61 109 141
60 107 139 59 106 137 58 104 134 57 102 132 56 100 130 55 98 127 54 97
125 53 95 122 52 93 120 51 90 117 50 88 114 49 86 111 47 83 108 46 80
104 44 77 100 42 73 95 40 68 88 38 61 78 33 0 0 0 0 0 0 0 0 0 0 0 0 0
0 0 0 0 0 0 0 0 0 0 0 0 0 0
0 0 0 0 0 0 0 0 0 0 0 0 0 0 0 0 0 0 0 0 0 135 174 74 132 170 73 130
168 71 127 165 70 126 163 69 124 160 68 122 158 67 120 156 66 119 154
65 117 152 65 115 149 64 114 147 63 112 145 62 111 143 61 109 141 60
107 139 59 106 137 58 104 135 57 103 133 57 101 131 56 99 128 55 97
126 54 95 124 53 94 121 52 92 119 51 89 116 49 87 113 48 85 110 47 82
107 45 80 103 44 77 99 42 73 95 40 69 89 38 64 82 35 53 69 29 0 0 0 0
0 0 0 0 0 0 0 0 0 0 0 0 0 0 0 0 0 0 0 0
0 0 0 0 0 0 0 0 0 0 0 0 0 0 0 0 0 0 0 0 0 132 171 73 130 168 71 127
165 70 126 163 69 124 160 68 122 158 67 120 156 66 119 154 65 117 152
65 116 150 64 114 148 63 112 145 62 111 143 61 109 141 60 108 139 59
106 137 59 105 135 58 103 133 57 101 131 56 100 129 55 98 127 54 96
124 53 94 122 52 92 120 51 91 117 50 88 114 49 86 112 48 84 109 46 82
106 45 79 102 44 76 99 42 73 94 40 69 90 38 65 84 36 58 76 32 0 0 0 0
0 0 0 0 0 0 0 0 0 0 0 0 0 0 0 0 0 0 0 0
0 0 0 0 0 0 0 0 0 0 0 0 0 0 0 0 0 0 132 171 73 130 168 71 127 165 70
126 162 69 124 160 68 122 158 67 120 156 66 119 154 65 117 152 65 116
150 64 114 148 63 113 146 62 111 144 61 109 142 60 108 140 60 106 138
59 105 136 58 103 134 57 102 132 56 100 129 55 98 127 54 97 125 53 95
123 52 93 121 51 91 118 50 89 116 49 87 113 48 85 110 47 83 108 46 81
104 45 78 101 43 75 98 42 72 94 40 69 89 38 65 84 36 60 77 33 52 67 28
0 0 0 0 0 0 0 0 0 0 0 0 0 0 0 0 0 0 0 0 0
0 0 0 0 0 0 0 0 0 0 0 0 0 0 0 0 0 0 130 168 71 127 165 70 126 162 69
124 160 68 122 158 67 120 156 66 119 154 65 117 152 65 116 150 64 116
149 65 120 153 70 120 153 70 112 144 63 108 140 60 107 138 59 105 136
58 103 134 57 102 132 56 100 130 55 99 128 54 97 126 54 95 124 53 94
121 52 92 119 51 90 117 50 88 114 49 86 112 48 84 109 46 82 106 45 80
103 44 77 100 43 75 96 41 72 93 39 68 88 38 65 83 36 60 77 33 54 69 30
0 0 0 0 0 0 0 0 0 0 0 0 0 0 0 0 0 0 0 0 0
0 0 0 0 0 0 0 0 0 0 0 0 0 0 0 130 168 71 127 165 70 125 162 69 124 160
68 122 158 67 120 156 66 119 154 65 117 152 65 116 150 64 116 149 65
136 169 86 192 225 142 182 214 133 126 158 77 108 139 60 105 136 58
104 134 57 102 132 56 101 130 55 99 128 55 97 126 54 96 124 53 94 122
52 92 120 51 91 117 50 89 115 49 87 113 48 85 110 47 83 108 46 81 105
45 79 102 43 76 99 42 74 95 41 71 92 39 68 87 37 64 83 35 60 77 33 54
70 30 46 59 25 0 0 0 0 0 0 0 0 0 0 0 0 0 0 0 0 0 0
0 0 0 0 0 0 0 0 0 0 0 0 0 0 0 127 165 70 125 162 69 124 160 68 122 158
67 120 156 66 119 154 65 117 152 65 116 150 64 114 148 63 120 153 70
192 225 142 255 255 255 255 255 213 137 169 89 107 138 60 104 134 57
102 132 56 101 130 56 99 128 55 98 126 54 96 124 53 95 122 52 93 120
51 91 118 50 89 116 49 88 114 48 86 111 47 84 109 46 82 106 45 80 103
44 78 100 43 75 97 41 73 94 40 70 90 38 67 86 37 63 82 35 59 77 33 54
70 30 47 61 26 0 0 0 0 0 0 0 0 0 0 0 0 0 0 0 0 0 0
0 0 0 0 0 0 0 0 0 0 0 0 127 165 70 125 162 69 123 160 68 122 158 67
120 155 66 119 153 65 117 151 65 115 149 64 114 148 63 113 146 62 120
153 70 182 214 133 255 255 213 196 227 148 120 151 73 105 135 58 102
133 56 101 131 56 99 129 55 98 127 54 96 125 53 95 123 52 93 121 51 92
119 51 90 116 50 88 114 49 86 112 48 85 110 47 83 107 46 81 104 45 79
102 43 76 99 42 74 96 41 71 93 39 69 89 38 66 85 36 62 81 34 58 76 32
54 70 30 48 62 26 37 48 21 0 0 0 0 0 0 0 0 0 0 0 0 0 0 0
0 0 0 0 0 0 0 0 0 0 0 0 125 162 69 123 160 68 122 157 67 120 155 66
118 153 65 117 151 64 115 149 64 114 147 63 112 145 62 111 144 61 112
144 63 126 158 77 137 169 89 120 151 73 106 136 59 103 133 57 101 131
56 100 129 55 98 127 54 97 125 53 95 123 52 94 121 52 92 119 51 90 117
50 89 115 49 87 113 48 85 110 47 83 108 46 81 105 45 79 103 44 77 100
43 75 97 41 73 94 40 70 91 39 68 88 37 65 84 36 61 79 34 58 74 32 53
69 29 47 61 26 39 51 22 0 0 0 0 0 0 0 0 0 0 0 0 0 0 0
0 0 0 0 0 0 0 0 0 0 0 0 123 159 68 121 157 67 120 155 66 118 153 65
117 151 64 115 149 64 114 147 63 112 145 62 111 143 61 109 142 60 108
140 60 108 139 60 107 138 60 105 135 58 103 133 57 101 131 56 100 129
55 98 127 54 97 125 53 95 123 53 94 121 52 92 119 51 91 117 50 89 115
49 87 113 48 86 111 47 84 109 46 82 106 45 80 104 44 78 101 43 76 98
42 74 96 41 72 93 39 69 89 38 66 86 37 63 82 35 60 78 33 57 73 31 52
68 29 47 61 26 39 51 22 0 0 0 0 0 0 0 0 0 0 0 0 0 0 0
0 0 0 0 0 0 0 0 0 122 158 67 121 157 67 119 155 66 118 153 65 116 151
64 115 149 63 114 147 63 112 145 62 111 143 61 109 141 60 108 140 60
107 138 59 105 136 58 104 134 57 102 133 56 101 131 56 100 129 55 98
127 54 97 125 53 95 123 53 94 121 52 92 119 51 91 117 50 89 115 49 88
113 48 86 111 47 84 109 46 83 107 46 81 104 45 79 102 43 77 99 42 75
97 41 73 94 40 70 91 39 68 88 37 65 84 36 62 81 34 59 76 33 55 72 31
51 66 28 46 59 25 39 50 21 25 32 14 0 0 0 0 0 0 0 0 0 0 0 0
0 0 0 0 0 0 0 0 0 120 156 66 119 154 66 118 152 65 116 150 64 115 148
63 113 147 62 112 145 62 110 143 61 109 141 60 108 139 59 106 138 59
105 136 58 104 134 57 102 132 56 101 131 56 100 129 55 98 127 54 97
125 53 95 123 53 94 121 52 92 120 51 91 118 50 89 116 49 88 114 48 86
112 48 85 109 47 83 107 46 81 105 45 79 103 44 77 100 43 75 98 42 73
95 40 71 92 39 69 89 38 66 86 37 64 83 35 61 79 34 58 75 32 54 70 30
50 65 27 45 58 25 38 49 21 26 34 15 0 0 0 0 0 0 0 0 0 0 0 0
0 0 0 0 0 0 0 0 0 118 153 65 117 151 65 116 150 64 114 148 63 113 146
62 112 144 62 110 143 61 109 141 60 107 139 59 106 137 59 105 136 58
103 134 57 102 132 56 101 130 56 99 129 55 98 127 54 97 125 53 95 123
53 94 121 52 92 120 51 91 118 50 89 116 49 88 114 49 86 112 48 85 110
47 83 108 46 81 105 45 80 103 44 78 101 43 76 98 42 74 96 41 72 93 40
70 90 39 67 87 37 65 84 36 62 81 34 59 77 33 56 73 31 53 68 29 48 63
27 43 56 24 37 48 20 26 34 14 0 0 0 0 0 0 0 0 0 0 0 0
0 0 0 0 0 0 0 0 0 116 150 64 115 149 63 114 147 63 112 145 62 111 144
61 110 142 61 108 140 60 107 139 59 106 137 58 105 135 58 103 134 57
102 132 56 101 130 55 99 128 55 98 127 54 97 125 53 95 123 53 94 121
52 92 120 51 91 118 50 90 116 49 88 114 49 87 112 48 85 110 47 83 108
46 82 106 45 80 104 44 78 101 43 76 99 42 75 97 41 73 94 40 71 91 39
68 88 38 66 85 36 64 82 35 61 79 34 58 75 32 55 71 30 51 66 28 47 61
26 42 54 23 35 46 19 25 32 14 0 0 0 0 0 0 0 0 0 0 0 0
0 0 0 0 0 0 0 0 0 114 147 63 113 146 62 112 145 62 111 143 61 109 141
60 108 140 60 107 138 59 106 137 58 104 135 57 103 133 57 102 132 56
100 130 55 99 128 55 98 126 54 96 125 53 95 123 52 94 121 52 92 119 51
91 118 50 89 116 49 88 114 49 87 112 48 85 110 47 83 108 46 82 106 45
80 104 44 79 102 43 77 99 42 75 97 41 73 95 40 71 92 39 69 89 38 67 86
37 64 83 36 62 80 34 59 77 33 56 73 31 53 69 29 49 64 27 45 59 25 40
52 22 34 43 19 23 30 13 0 0 0 0 0 0 0 0 0 0 0 0
0 0 0 0 0 0 0 0 0 111 144 61 111 143 61 110 142 61 109 141 60 107 139
59 106 138 59 105 136 58 104 134 57 103 133 57 101 131 56 100 129 55
99 128 54 97 126 54 96 124 53 95 123 52 94 121 52 92 119 51 91 117 50
89 116 49 88 114 49 87 112 48 85 110 47 84 108 46 82 106 45 80 104 44
79 102 43 77 100 42 75 97 42 73 95 41 72 93 39 70 90 38 67 87 37 65 84
36 63 81 35 60 78 33 58 75 32 55 71 30 51 66 28 48 62 26 43 56 24 38
49 21 32 41 17 21 27 11 0 0 0 0 0 0 0 0 0 0 0 0
0 0 0 0 0 0 0 0 0 109 141 60 109 141 60 108 140 59 107 138 59 106 137
58 104 135 58 103 134 57 102 132 56 101 131 56 100 129 55 98 127 54 97
126 54 96 124 53 95 122 52 93 121 51 92 119 51 91 117 50 89 115 49 88
114 48 86 112 48 85 110 47 83 108 46 82 106 45 80 104 44 79 102 43 77
100 43 75 98 42 74 95 41 72 93 40 70 91 39 68 88 37 66 85 36 64 82 35
61 79 34 59 76 32 56 72 31 53 68 29 50 64 27 46 59 25 41 54 23 36 47
20 29 38 16 18 23 10 0 0 0 0 0 0 0 0 0 0 0 0
0 0 0 0 0 0 0 0 0 106 138 59 106 138 59 106 137 58 105 136 58 104 134
57 103 133 57 101 131 56 100 130 55 99 128 55 98 127 54 97 125 53 95
124 53 94 122 52 93 120 51 92 119 51 90 117 50 89 115 49 88 113 48 86
112 48 85 110 47 83 108 46 82 106 45 80 104 44 79 102 43 77 100 43 76
98 42 74 96 41 72 93 40 70 91 39 68 88 38 66 86 37 64 83 35 62 80 34
59 77 33 57 74 31 54 70 30 51 66 28 48 62 26 44 57 24 39 51 22 34 44
19 26 34 15 14 18 8 0 0 0 0 0 0 0 0 0 0 0 0
0 0 0 0 0 0 0 0 0 103 133 57 104 135 57 104 134 57 103 133 57 102 132
56 101 130 56 100 129 55 98 127 54 97 126 54 96 124 53 95 123 52 94
121 52 92 120 51 91 118 50 90 116 50 89 115 49 87 113 48 86 111 47 85
109 47 83 108 46 82 106 45 80 104 44 79 102 43 77 100 43 76 98 42 74
96 41 72 93 40 70 91 39 69 89 38 67 86 37 64 83 36 62 81 34 60 78 33
58 75 32 55 71 30 52 67 29 49 63 27 45 59 25 41 54 23 37 48 20 31 40
17 23 30 13 14 18 8 0 0 0 0 0 0 0 0 0 0 0 0
0 0 0 0 0 0 0 0 0 0 0 0 101 131 56 101 131 56 101 130 55 100 129 55 99
128 54 98 126 54 97 125 53 95 124 53 94 122 52 93 121 51 92 119 51 91
117 50 89 116 49 88 114 49 87 113 48 86 111 47 84 109 46 83 107 46 81
105 45 80 104 44 79 102 43 77 100 42 75 98 42 74 96 41 72 93 40 70 91
39 69 89 38 67 86 37 65 84 36 63 81 35 60 78 33 58 75 32 56 72 31 53
68 29 50 65 28 47 61 26 43 56 24 39 50 22 34 44 19 28 36 15 19 25 11 0
0 0 0 0 0 0 0 0 0 0 0 0 0 0
0 0 0 0 0 0 0 0 0 0 0 0 99 128 54 99 128 54 98 127 54 98 126 54 97 125
53 96 124 53 95 122 52 94 121 52 92 120 51 91 118 50 90 117 50 89 115
49 88 114 48 86 112 48 85 110 47 84 109 46 83 107 46 81 105 45 80 103
44 78 101 43 77 99 42 75 97 42 74 95 41 72 93 40 70 91 39 69 89 38 67
86 37 65 84 36 63 81 35 61 79 33 59 76 32 56 73 31 54 69 30 51 66 28
48 62 26 44 58 25 41 53 22 36 47 20 31 40 17 25 32 14 14 19 8 0 0 0 0
0 0 0 0 0 0 0 0 0 0 0
0 0 0 0 0 0 0 0 0 0 0 0 95 123 52 96 124 53 96 124 53 95 123 53 94 122
52 94 121 52 93 120 51 92 119 51 91 117 50 89 116 49 88 114 49 87 113
48 86 111 47 85 110 47 83 108 46 82 106 45 81 104 45 79 103 44 78 101
43 76 99 42 75 97 41 73 95 41 72 93 40 70 91 39 69 89 38 67 86 37 65
84 36 63 81 35 61 79 34 59 76 32 56 73 31 54 70 30 51 66 28 49 63 27
45 59 25 42 54 23 38 49 21 33 43 18 28 36 15 20 26 11 14 18 8 0 0 0 0
0 0 0 0 0 0 0 0 0 0 0
0 0 0 0 0 0 0 0 0 0 0 0 0 0 0 93 120 51 93 121 51 93 120 51 92 119 51
91 118 50 90 117 50 89 116 49 88 114 49 87 113 48 86 112 48 85 110 47
84 109 46 83 107 46 81 105 45 80 104 44 79 102 43 77 100 43 76 98 42
75 97 41 73 95 40 72 93 39 70 91 39 68 88 38 67 86 37 65 84 36 63 81
35 61 79 34 59 76 32 57 73 31 54 70 30 52 67 29 49 63 27 46 60 25 43
55 24 39 51 22 35 45 19 30 39 17 24 31 13 15 20 8 0 0 0 0 0 0 0 0 0 0
0 0 0 0 0 0 0 0
0 0 0 0 0 0 0 0 0 0 0 0 0 0 0 89 115 49 90 117 50 90 117 50 90 116 49
89 115 49 88 114 49 87 113 48 86 112 48 85 110 47 84 109 46 83 108 46
82 106 45 81 104 45 79 103 44 78 101 43 77 99 42 75 98 42 74 96 41 73
94 40 71 92 39 70 90 38 68 88 37 66 86 37 64 83 36 63 81 35 61 79 33
59 76 32 57 73 31 54 70 30 52 67 29 49 64 27 47 60 26 43 56 24 40 52
22 36 47 20 32 41 18 26 34 15 19 25 11 14 18 8 0 0 0 0 0 0 0 0 0 0 0 0
0 0 0 0 0 0
0 0 0 0 0 0 0 0 0 0 0 0 0 0 0 0 0 0 87 112 48 87 113 48 87 113 48 86
112 48 86 111 47 85 110 47 84 109 46 83 108 46 82 106 45 81 105 45 80
103 44 79 102 43 77 100 43 76 98 42 75 97 41 73 95 40 72 93 40 71 91
39 69 89 38 67 87 37 66 85 36 64 83 35 62 81 34 60 78 33 59 76 32 56
73 31 54 70 30 52 67 29 49 64 27 47 60 26 44 57 24 41 53 22 37 48 20
33 43 18 28 36 15 22 28 12 14 18 8 0 0 0 0 0 0 0 0 0 0 0 0 0 0 0 0 0 0
0 0 0
0 0 0 0 0 0 0 0 0 0 0 0 0 0 0 0 0 0 82 106 45 84 108 46 84 109 46 84
108 46 83 108 46 82 107 45 82 106 45 81 104 45 80 103 44 79 102 43 78
100 43 76 99 42 75 97 41 74 96 41 73 94 40 71 92 39 70 90 39 68 88 38
67 86 37 65 84 36 64 82 35 62 80 34 60 78 33 58 75 32 56 73 31 54 70
30 52 67 29 49 64 27 47 60 26 44 57 24 41 53 23 37 48 21 34 43 19 29
38 16 24 31 13 17 21 9 14 18 8 0 0 0 0 0 0 0 0 0 0 0 0 0 0 0 0 0 0 0 0
0
0 0 0 0 0 0 0 0 0 0 0 0 0 0 0 0 0 0 0 0 0 79 103 44 80 104 44 81 104
44 80 104 44 80 103 44 79 102 44 78 101 43 77 100 43 76 99 42 75 97 41
74 96 41 73 94 40 72 93 39 70 91 39 69 89 38 67 87 37 66 85 36 64 83
36 63 81 35 61 79 34 59 77 33 58 75 32 56 72 31 54 69 30 51 66 28 49
63 27 47 60 26 44 57 24 41 53 23 38 49 21 34 44 19 30 38 16 25 32 14
18 24 10 14 18 8 0 0 0 0 0 0 0 0 0 0 0 0 0 0 0 0 0 0 0 0 0 0 0 0
0 0 0 0 0 0 0 0 0 0 0 0 0 0 0 0 0 0 0 0 0 72 93 40 76 99 42 77 100 42
77 100 42 77 99 42 76 99 42 75 98 42 75 96 41 74 95 41 73 94 40 71 93
39 70 91 39 69 89 38 68 88 37 66 86 37 65 84 36 64 82 35 62 80 34 60
78 33 59 76 32 57 74 31 55 71 30 53 68 29 51 66 28 49 63 27 46 60 25
43 56 24 41 53 22 37 48 21 34 44 19 30 39 16 25 33 14 19 25 11 14 18 8
14 18 8 0 0 0 0 0 0 0 0 0 0 0 0 0 0 0 0 0 0 0 0 0 0 0 0
0 0 0 0 0 0 0 0 0 0 0 0 0 0 0 0 0 0 0 0 0 0 0 0 70 90 38 72 94 40 73
95 40 73 95 40 73 94 40 72 94 40 72 93 39 71 92 39 70 90 38 69 89 38
68 88 37 66 86 37 65 84 36 64 83 35 62 81 34 61 79 34 59 77 33 58 75
32 56 72 31 54 70 30 52 67 29 50 65 28 48 62 26 45 59 25 43 55 24 40
52 22 37 48 20 34 43 19 30 38 16 25 33 14 20 25 11 14 18 8 14 18 8 0 0
0 0 0 0 0 0 0 0 0 0 0 0 0 0 0 0 0 0 0 0 0 0 0 0 0
0 0 0 0 0 0 0 0 0 0 0 0 0 0 0 0 0 0 0 0 0 0 0 0 0 0 0 66 85 36 68 88
38 69 89 38 69 90 38 69 89 38 68 88 38 68 87 37 67 86 37 66 85 36 65
84 36 63 82 35 62 81 34 61 79 34 59 77 33 58 75 32 56 73 31 55 71 30
53 68 29 51 66 28 49 63 27 47 61 26 44 58 25 42 54 23 39 51 22 36 47
20 33 43 18 29 38 16 25 32 14 19 25 11 14 18 8 14 18 8 0 0 0 0 0 0 0 0
0 0 0 0 0 0 0 0 0 0 0 0 0 0 0 0 0 0 0 0 0 0
0 0 0 0 0 0 0 0 0 0 0 0 0 0 0 0 0 0 0 0 0 0 0 0 0 0 0 0 0 0 61 78 33
64 82 35 65 84 36 65 84 36 65 83 36 64 83 35 63 82 35 62 81 34 61 79
34 60 78 33 59 76 33 58 75 32 56 73 31 55 71 30 53 69 29 51 66 28 50
64 27 48 62 26 45 59 25 43 56 24 41 53 22 38 49 21 35 45 19 32 41 18
28 36 15 24 31 13 18 24 10 14 18 8 14 18 8 0 0 0 0 0 0 0 0 0 0 0 0 0 0
0 0 0 0 0 0 0 0 0 0 0 0 0 0 0 0 0 0 0
0 0 0 0 0 0 0 0 0 0 0 0 0 0 0 0 0 0 0 0 0 0 0 0 0 0 0 0 0 0 0 0 0 53
69 29 58 76 32 60 77 33 60 77 33 60 77 33 59 77 33 58 76 32 58 74 32
57 73 31 55 72 31 54 70 30 53 68 29 51 66 28 49 64 27 48 62 26 46 59
25 44 57 24 41 54 23 39 50 22 36 47 20 33 43 18 30 39 17 26 34 15 22
28 12 17 21 9 14 18 8 14 18 8 0 0 0 0 0 0 0 0 0 0 0 0 0 0 0 0 0 0 0 0
0 0 0 0 0 0 0 0 0 0 0 0 0 0 0 0
0 0 0 0 0 0 0 0 0 0 0 0 0 0 0 0 0 0 0 0 0 0 0 0 0 0 0 0 0 0 0 0 0 0 0
0 0 0 0 52 67 28 54 69 30 54 70 30 54 70 30 54 70 30 53 69 29 52 68 29
51 66 28 50 65 27 48 63 27 47 61 26 45 59 25 43 56 24 41 54 23 39 51
22 37 48 20 34 44 19 31 40 17 28 36 15 24 31 13 19 25 11 14 18 8 14 18
8 0 0 0 0 0 0 0 0 0 0 0 0 0 0 0 0 0 0 0 0 0 0 0 0 0 0 0 0 0 0 0 0 0 0
0 0 0 0 0 0 0 0
0 0 0 0 0 0 0 0 0 0 0 0 0 0 0 0 0 0 0 0 0 0 0 0 0 0 0 0 0 0 0 0 0 0 0
0 0 0 0 0 0 0 0 0 0 46 59 25 47 61 26 48 62 26 47 61 26 47 61 26 46 59
25 45 58 25 43 56 24 42 54 23 40 52 22 38 49 21 36 47 20 34 44 19 31
40 17 28 36 15 25 32 14 20 26 11 15 20 8 14 18 8 0 0 0 0 0 0 0 0 0 0 0
0 0 0 0 0 0 0 0 0 0 0 0 0 0 0 0 0 0 0 0 0 0 0 0 0 0 0 0 0 0 0 0 0 0 0
0 0
0 0 0 0 0 0 0 0 0 0 0 0 0 0 0 0 0 0 0 0 0 0 0 0 0 0 0 0 0 0 0 0 0 0 0
0 0 0 0 0 0 0 0 0 0 0 0 0 0 0 0 37 48 21 39 51 22 39 51 22 39 50 21 38
49 21 37 48 20 35 46 19 34 43 19 32 41 17 29 38 16 26 34 15 23 30 13
19 25 11 14 19 8 14 18 8 0 0 0 0 0 0 0 0 0 0 0 0 0 0 0 0 0 0 0 0 0 0 0
0 0 0 0 0 0 0 0 0 0 0 0 0 0 0 0 0 0 0 0 0 0 0 0 0 0 0 0 0 0 0
0 0 0 0 0 0 0 0 0 0 0 0 0 0 0 0 0 0 0 0 0 0 0 0 0 0 0 0 0 0 0 0 0 0 0
0 0 0 0 0 0 0 0 0 0 0 0 0 0 0 0 0 0 0 0 0 0 0 0 0 25 32 14 26 34 15 26
34 14 25 32 14 23 30 13 21 27 11 18 23 10 14 18 8 14 18 8 0 0 0 0 0 0
0 0 0 0 0 0 0 0 0 0 0 0 0 0 0 0 0 0 0 0 0 0 0 0 0 0 0 0 0 0 0 0 0 0 0
0 0 0 0 0 0 0 0 0 0 0 0 0 0 0 0 0 0 0 0 0 0
0 0 0 0 0 0 0 0 0 0 0 0 0 0 0 0 0 0 0 0 0 0 0 0 0 0 0 0 0 0 0 0 0 0 0
0 0 0 0 0 0 0 0 0 0 0 0 0 0 0 0 0 0 0 0 0 0 0 0 0 0 0 0 0 0 0 0 0 0 0
0 0 0 0 0 0 0 0 0 0 0 0 0 0 0 0 0 0 0 0 0 0 0 0 0 0 0 0 0 0 0 0 0 0 0
0 0 0 0 0 0 0 0 0 0 0 0 0 0 0 0 0 0 0 0 0 0 0 0 0 0 0 0 0 0 0 0 0 0 0
0 0 0 0 0 0 0 0 0 0
0 0 0 0 0 0 0 0 0 0 0 0 0 0 0 0 0 0 0 0 0 0 0 0 0 0 0 0 0 0 0 0 0 0 0
0 0 0 0 0 0 0 0 0 0 0 0 0 0 0 0 0 0 0 0 0 0 0 0 0 0 0 0 0 0 0 0 0 0 0
0 0 0 0 0 0 0 0 0 0 0 0 0 0 0 0 0 0 0 0 0 0 0 0 0 0 0 0 0 0 0 0 0 0 0
0 0 0 0 0 0 0 0 0 0 0 0 0 0 0 0 0 0 0 0 0 0 0 0 0 0 0 0 0 0 0 0 0 0 0
0 0 0 0 0 0 0 0 0 0
0 0 0 0 0 0 0 0 0 0 0 0 0 0 0 0 0 0 0 0 0 0 0 0 0 0 0 0 0 0 0 0 0 0 0
0 0 0 0 0 0 0 0 0 0 0 0 0 0 0 0 0 0 0 0 0 0 0 0 0 0 0 0 0 0 0 0 0 0 0
0 0 0 0 0 0 0 0 0 0 0 0 0 0 0 0 0 0 0 0 0 0 0 0 0 0 0 0 0 0 0 0 0 0 0
0 0 0 0 0 0 0 0 0 0 0 0 0 0 0 0 0 0 0 0 0 0 0 0 0 0 0 0 0 0 0 0 0 0 0
0 0 0 0 0 0 0 0 0 0
0 0 0 0 0 0 0 0 0 0 0 0 0 0 0 0 0 0 0 0 0 0 0 0 0 0 0 0 0 0 0 0 0 0 0
0 0 0 0 0 0 0 0 0 0 0 0 0 0 0 0 0 0 0 0 0 0 0 0 0 0 0 0 0 0 0 0 0 0 0
0 0 0 0 0 0 0 0 0 0 0 0 0 0 0 0 0 0 0 0 0 0 0 0 0 0 0 0 0 0 0 0 0 0 0
0 0 0 0 0 0 0 0 0 0 0 0 0 0 0 0 0 0 0 0 0 0 0 0 0 0 0 0 0 0 0 0 0 0 0
0 0 0 0 0 0 0 0 0 0
